<svg xmlns="http://www.w3.org/2000/svg" viewBox="0 0 22 19"><defs><style>.cls-1{fill:#fff;fill-rule:evenodd;}</style></defs><g id="Layer_2" data-name="Layer 2"><g id="Layer_1-2" data-name="Layer 1"><path class="cls-1" d="M21.31,16.29H17.88v2a.68.68,0,0,1-.69.68H4.81a.68.68,0,0,1-.69-.68v-2H.69A.69.69,0,0,1,0,15.61V3.39a.69.69,0,0,1,.69-.68H4.12v-2A.68.68,0,0,1,4.81,0H17.19a.68.68,0,0,1,.69.68v2h3.43a.69.69,0,0,1,.69.68V15.61A.69.69,0,0,1,21.31,16.29ZM4.12,4.07H1.38V14.93H4.12ZM16.5,1.36H5.5V17.64h11Zm4.12,2.71H17.88V14.93h2.74Zm-11,6.79a3.54,3.54,0,0,1,1.38.27V4.75a.69.69,0,0,1,.81-.67c1.15.21,3.31,1.18,3.31,3.3a.68.68,0,0,1-.68.68.69.69,0,0,1-.69-.68,2,2,0,0,0-1.37-1.7v7.21c0,1.14-1.21,2-2.76,2s-2.74-.9-2.74-2S8.08,10.86,9.62,10.86Zm0,2.71c.84,0,1.38-.4,1.38-.68s-.54-.68-1.38-.68-1.37.41-1.37.68S8.79,13.57,9.62,13.57Z"/></g></g></svg>