<svg xmlns="http://www.w3.org/2000/svg" viewBox="0 0 13 20"><defs><style>.cls-1{fill:#fff;fill-rule:evenodd;}</style></defs><g id="Layer_2" data-name="Layer 2"><g id="Layer_1-2" data-name="Layer 1"><path class="cls-1" d="M5.2,16.13v2.62H3.25a.63.63,0,1,0,0,1.25h6.5a.63.63,0,1,0,0-1.25H7.8V16.12A6.11,6.11,0,0,0,13,10V8.12a.65.65,0,0,0-1.3,0V10a5,5,0,0,1-5.2,5,4.9,4.9,0,0,1-5.2-5V8.12A.64.64,0,0,0,.65,7.5.64.64,0,0,0,0,8.12V10A6,6,0,0,0,5.2,16.13Zm1.3-2.38A3.83,3.83,0,0,0,10.4,10V3.75A3.83,3.83,0,0,0,6.5,0,3.83,3.83,0,0,0,2.6,3.75V10A3.83,3.83,0,0,0,6.5,13.75Zm-2.6-10a2.55,2.55,0,0,1,2.6-2.5,2.55,2.55,0,0,1,2.6,2.5V10a2.55,2.55,0,0,1-2.6,2.5A2.55,2.55,0,0,1,3.9,10Z"/></g></g></svg>