<svg xmlns="http://www.w3.org/2000/svg" viewBox="0 0 17 13"><defs><style>.cls-1{fill:#fff;fill-rule:evenodd;}</style></defs><g id="Layer_2" data-name="Layer 2"><g id="Layer_1-2" data-name="Layer 1"><path class="cls-1" d="M14.92,13H2.08A2.09,2.09,0,0,1,0,10.91V2.09A2.09,2.09,0,0,1,2.08,0H14.92A2.09,2.09,0,0,1,17,2.09v8.82A2.09,2.09,0,0,1,14.92,13Zm1.13-2.09V2.09A1.14,1.14,0,0,0,14.92,1H2.08A1.14,1.14,0,0,0,1,2.09v8.82a1.14,1.14,0,0,0,1.13,1.14H14.92a1.14,1.14,0,0,0,1.13-1.14Zm-1.14.14a.46.46,0,0,1-.34.15.51.51,0,0,1-.33-.13L10,7,8.83,8.1a.49.49,0,0,1-.32.12.51.51,0,0,1-.32-.12L7,7.07l-4.25,4a.47.47,0,0,1-.67,0,.49.49,0,0,1,0-.68L6.33,6.42,2.12,2.64a.47.47,0,0,1,0-.67.47.47,0,0,1,.67,0L7.3,6l.08.07h0l1.12,1,5.73-5.17a.48.48,0,0,1,.64.71L10.72,6.39l4.17,4A.49.49,0,0,1,14.91,11.05Z"/></g></g></svg>