<svg xmlns="http://www.w3.org/2000/svg" viewBox="0 0 12 16"><defs><style>.cls-1{fill:#fff;fill-rule:evenodd;}</style></defs><g id="Layer_2" data-name="Layer 2"><g id="Layer_1-2" data-name="Layer 1"><path class="cls-1" d="M11.15,8.51,6.51,15.77a.5.5,0,0,1-.42.23h0a.5.5,0,0,1-.42-.22L.9,8.58a5.34,5.34,0,0,1-.9-3A5.82,5.82,0,0,1,6,0a5.82,5.82,0,0,1,6,5.62A5.33,5.33,0,0,1,11.15,8.51ZM6,.93A4.87,4.87,0,0,0,1,5.62a4.54,4.54,0,0,0,.75,2.47l4.34,6.54L10.3,8A4.51,4.51,0,0,0,11,5.62,4.86,4.86,0,0,0,6,.93ZM6,8.44A2.9,2.9,0,0,1,3,5.62,2.92,2.92,0,0,1,6,2.81,2.92,2.92,0,0,1,9,5.62,2.9,2.9,0,0,1,6,8.44Zm0-4.7A2,2,0,0,0,4,5.62,2,2,0,0,0,6,7.51,1.94,1.94,0,0,0,8,5.62,2,2,0,0,0,6,3.74Z"/></g></g></svg>