<svg xmlns="http://www.w3.org/2000/svg" viewBox="0 0 19 17"><defs><style>.cls-1{fill:#fff;fill-rule:evenodd;}</style></defs><g id="Layer_2" data-name="Layer 2"><g id="Layer_1-2" data-name="Layer 1"><path class="cls-1" d="M17.61,1.67A4.76,4.76,0,0,0,14,0a4.81,4.81,0,0,0-4,2.23A8.4,8.4,0,0,0,9.5,3,8.4,8.4,0,0,0,9,2.23,4.81,4.81,0,0,0,5.05,0,4.76,4.76,0,0,0,1.39,1.67,5.84,5.84,0,0,0,0,5.54a7.21,7.21,0,0,0,1.94,4.69,43.64,43.64,0,0,0,4.86,4.6c.74.64,1.5,1.29,2.31,2l0,0a.56.56,0,0,0,.74,0l0,0c.81-.72,1.57-1.37,2.31-2a43.64,43.64,0,0,0,4.86-4.6A7.21,7.21,0,0,0,19,5.54,5.84,5.84,0,0,0,17.61,1.67ZM11.47,14l-2,1.72L7.53,14C3.66,10.64,1.11,8.44,1.11,5.54A4.76,4.76,0,0,1,2.22,2.42,3.67,3.67,0,0,1,5.05,1.13,3.75,3.75,0,0,1,8.12,2.88,6.78,6.78,0,0,1,9,4.6.56.56,0,0,0,10,4.6a6.78,6.78,0,0,1,.85-1.72A3.75,3.75,0,0,1,14,1.13a3.67,3.67,0,0,1,2.83,1.29,4.76,4.76,0,0,1,1.11,3.12C17.89,8.44,15.34,10.64,11.47,14Z"/></g></g></svg>