<svg xmlns="http://www.w3.org/2000/svg" viewBox="0 0 19.99 20"><defs><style>.cls-1{fill:#fff;fill-rule:evenodd;}</style></defs><g id="Layer_2" data-name="Layer 2"><g id="Layer_1-2" data-name="Layer 1"><path class="cls-1" d="M19.34,2.57a.78.78,0,0,0-.74,0L13.49,5.17a.82.82,0,0,0-.7.84L13,14.07a3.82,3.82,0,0,0-1.5-.3,4.47,4.47,0,0,0-1.48.25c-2,.67-3.23,2.46-2.75,4.07a3,3,0,0,0,3,1.91,4.42,4.42,0,0,0,1.48-.25,3.72,3.72,0,0,0,2.85-3.56.85.85,0,0,0,0-.29l-.14-4.81,5-2.31A.84.84,0,0,0,20,8l-.24-4.73A.86.86,0,0,0,19.34,2.57Zm-8,15.6a3.29,3.29,0,0,1-1,.17c-.76,0-1.37-.31-1.5-.76-.18-.61.47-1.58,1.72-2a3.27,3.27,0,0,1,1-.16c.76,0,1.37.3,1.5.76S12.57,17.76,11.32,18.17ZM14.47,9.3l-.08-2.75,3.84-2,.14,2.92Zm-.68-7.65H.79A.8.8,0,0,1,0,.83.81.81,0,0,1,.79,0h13a.81.81,0,0,1,.79.83A.81.81,0,0,1,13.79,1.65ZM10,5.64a.81.81,0,0,1-.79.83H.79a.83.83,0,0,1,0-1.66h8.4A.81.81,0,0,1,10,5.64Zm0,4.68a.8.8,0,0,1-.79.82H.79a.83.83,0,0,1,0-1.65h8.4A.81.81,0,0,1,10,10.32Z"/></g></g></svg>