<svg xmlns="http://www.w3.org/2000/svg" viewBox="0 0 20 20"><defs><style>.cls-1{fill:#fff;fill-rule:evenodd;}</style></defs><g id="Layer_2" data-name="Layer 2"><g id="Layer_1-2" data-name="Layer 1"><path class="cls-1" d="M19.38,20H.62A.62.62,0,0,1,0,19.38V5.62A.62.62,0,0,1,.62,5H2.5V3.12a.62.62,0,0,1,.62-.62H5V.62A.62.62,0,0,1,5.62,0h8.76A.62.62,0,0,1,15,.62V2.5h1.88a.62.62,0,0,1,.62.62V5h1.88a.62.62,0,0,1,.62.62V19.38A.62.62,0,0,1,19.38,20ZM13.75,1.25H6.25V2.5h7.5Zm2.5,2.5H3.75V5h12.5Zm2.5,2.5H1.25v12.5h17.5Zm-10,7.5A3.32,3.32,0,0,1,10,14V8.12s0,0,0,0V8S10,8,10,8a.56.56,0,0,1,0-.12l.06-.09a.28.28,0,0,1,.1-.09.16.16,0,0,1,.08-.06l.12,0,.12,0h.18c1,.2,3,1.08,3,3a.63.63,0,0,1-1.25,0A1.79,1.79,0,0,0,11.25,9v6.63c0,1.06-1.1,1.88-2.5,1.88s-2.5-.82-2.5-1.88S7.35,13.75,8.75,13.75Zm0,2.5c.75,0,1.25-.38,1.25-.63S9.5,15,8.75,15s-1.25.38-1.25.62S8,16.25,8.75,16.25Z"/></g></g></svg>