<svg xmlns="http://www.w3.org/2000/svg" viewBox="0 0 21.99 19.99"><defs><style>.cls-1{fill:#fff;fill-rule:evenodd;}</style></defs><g id="Layer_2" data-name="Layer 2"><g id="Layer_1-2" data-name="Layer 1"><path class="cls-1" d="M13,10.73l2.5,2-.83,1.19-3.05-2.45V3.33H13ZM20.72,15A9,9,0,0,1,7.93,18.64l.69-1.28a7.91,7.91,0,0,0,2.52,1,8,8,0,0,0,9.31-6.78A8.5,8.5,0,0,0,14.1,1.64,8,8,0,0,0,4.79,8.43L6.93,6.14l1,1.05L4,11.41,0,7.19,1,6.14,3.36,8.67A9.59,9.59,0,0,1,12.63,0a8.93,8.93,0,0,1,4.69,1.35A10.37,10.37,0,0,1,20.72,15ZM5.89,14.55l-1.17.8A10.28,10.28,0,0,1,4,13.94l1.28-.59A7.42,7.42,0,0,0,5.89,14.55Zm1.69,2L6.7,17.73a9.44,9.44,0,0,1-1.08-1.11l1-1A8.17,8.17,0,0,0,7.58,16.58Z"/></g></g></svg>