<svg xmlns="http://www.w3.org/2000/svg" viewBox="0 0 22.98 20.01"><defs><style>.cls-1{fill:#fff;fill-rule:evenodd;}</style></defs><g id="Layer_2" data-name="Layer 2"><g id="Layer_1-2" data-name="Layer 1"><path class="cls-1" d="M22.87,8.72a.63.63,0,0,1-.49.24A.59.59,0,0,1,22,8.84L11.49,1.31,1,8.84a.6.6,0,0,1-.83-.12A.58.58,0,0,1,.24,7.9L11.14.11a.6.6,0,0,1,.7,0L22.74,7.9A.59.59,0,0,1,22.87,8.72ZM3.13,9a.59.59,0,0,1,.6.58v9.28H8.51V13.77a3,3,0,0,1,6,0v5.07h4.77V9.56a.6.6,0,0,1,1.2,0v9.86a.59.59,0,0,1-.6.59h-6a.59.59,0,0,1-.59-.54.07.07,0,0,1,0,0V13.77a1.79,1.79,0,0,0-3.58,0v5.7a.6.6,0,0,1-.6.54h-6a.59.59,0,0,1-.6-.59V9.56A.59.59,0,0,1,3.13,9Z"/></g></g></svg>