<svg xmlns="http://www.w3.org/2000/svg" viewBox="0 0 11.01 14.98"><defs><style>.cls-1{fill:#fff;fill-rule:evenodd;}</style></defs><g id="Layer_2" data-name="Layer 2"><g id="Layer_1-2" data-name="Layer 1"><path class="cls-1" d="M10.59,15a.43.43,0,0,1-.42-.43V.43a.42.42,0,1,1,.84,0V14.55A.43.43,0,0,1,10.59,15ZM9.46,7.82.67,14.89A.38.38,0,0,1,.42,15a.41.41,0,0,1-.19-.05A.43.43,0,0,1,0,14.55V.43A.45.45,0,0,1,.23,0a.41.41,0,0,1,.44,0L9.46,7.15a.44.44,0,0,1,.16.34A.42.42,0,0,1,9.46,7.82ZM.83,1.31V13.67l7.7-6.18Z"/></g></g></svg>