<svg xmlns="http://www.w3.org/2000/svg" viewBox="0 0 40.02 40.01"><defs><style>.cls-1{fill:#fff;fill-rule:evenodd;}</style></defs><g id="Layer_2" data-name="Layer 2"><g id="Layer_1-2" data-name="Layer 1"><path class="cls-1" d="M39.33,25.18A20,20,0,0,1,20,40a20.27,20.27,0,0,1-5.21-.69A20,20,0,0,1,.69,14.83,20,20,0,0,1,25.19.69,20,20,0,0,1,39.33,25.18Zm-3.8-14.13A17.79,17.79,0,0,0,24.65,2.7,18.22,18.22,0,0,0,20,2.08a17.93,17.93,0,1,0,15.55,9Zm-4.05,1.13a1,1,0,0,1-.82-.4,13.64,13.64,0,0,0-8.85-5.11,1,1,0,1,1,.28-2.06,15.72,15.72,0,0,1,10.22,5.9A1,1,0,0,1,32.12,12,1.07,1.07,0,0,1,31.48,12.18ZM30.7,20a2.16,2.16,0,0,1-1.09,1.88L16.75,29.32a2.25,2.25,0,0,1-1.09.29,2.22,2.22,0,0,1-1.09-.29,2.15,2.15,0,0,1-1.09-1.89V12.58a2.18,2.18,0,0,1,3.27-1.88l12.86,7.42A2.16,2.16,0,0,1,30.7,20Zm-2.13-.09L15.71,12.5l-.05,0-.05,0a.08.08,0,0,0,0,.08V27.43a.08.08,0,0,0,0,.08.09.09,0,0,0,.1,0l12.86-7.42a.1.1,0,0,0,0-.08A.11.11,0,0,0,28.57,19.92Z"/></g></g></svg>