<svg xmlns="http://www.w3.org/2000/svg" viewBox="0 0 11.01 14.98"><defs><style>.cls-1{fill:#fff;fill-rule:evenodd;}</style></defs><g id="Layer_2" data-name="Layer 2"><g id="Layer_1-2" data-name="Layer 1"><path class="cls-1" d="M10.77,14.93a.41.41,0,0,1-.18.05.43.43,0,0,1-.26-.09L1.55,7.82a.4.4,0,0,1-.17-.33.45.45,0,0,1,.17-.34L10.33.09a.42.42,0,0,1,.44,0A.46.46,0,0,1,11,.43V14.55A.44.44,0,0,1,10.77,14.93Zm-.6-13.62L2.48,7.49l7.69,6.18ZM.42,15A.43.43,0,0,1,0,14.55V.43A.42.42,0,0,1,.42,0,.42.42,0,0,1,.83.43V14.55A.42.42,0,0,1,.42,15Z"/></g></g></svg>