<svg xmlns="http://www.w3.org/2000/svg" viewBox="0 0 19.98 20"><defs><style>.cls-1{fill:#fff;fill-rule:evenodd;}</style></defs><g id="Layer_2" data-name="Layer 2"><g id="Layer_1-2" data-name="Layer 1"><path class="cls-1" d="M17.64,5.24A.68.68,0,0,0,17,4.65H13V3A3,3,0,1,0,7,3V4.65H3a.69.69,0,0,0-.69.59L0,19.19A.69.69,0,0,0,.7,20H19.27a.7.7,0,0,0,.71-.71.78.78,0,0,0,0-.22ZM8.36,3a1.62,1.62,0,1,1,3.23,0V4.65H8.36ZM1.52,18.6,3.6,6.06H7v4a.71.71,0,1,0,1.41,0V6.06h3.23v4A.71.71,0,1,0,13,10V6.06h3.35L18.43,18.6Z"/></g></g></svg>