<svg xmlns="http://www.w3.org/2000/svg" viewBox="0 0 23 20"><defs><style>.cls-1{fill:#fff;fill-rule:evenodd;}</style></defs><g id="Layer_2" data-name="Layer 2"><g id="Layer_1-2" data-name="Layer 1"><path class="cls-1" d="M23,5.92v.23h0s0,0,0,0h0l-11,13.63h0s0,0,0,0h0l0,0h0l0,0h0l0,0h-.4l0,0h0l0,0h0l0,0h0l0,0h0L.1,6.2h0a.08.08,0,0,1,0,0h0V5.92H0v0H0s0,0,0,0V5.66h0l0,0v0h0L4.87.15h0l0,0h0l0,0h0l0,0H5l.09,0H17.93l.09,0h0l0,0h0l0,0h0l0,0h0l4.76,5.46h0v0l0,0h0v.16s0,0,0,0h0v0h0ZM10.3,17.35l-3.62-11H1.4ZM5,1.35,1.44,5.45H6.38Zm.8-.44L7.18,5,10.54.91ZM8,5.45H9.7a.46.46,0,0,1,.45.46.45.45,0,0,1-.45.45H7.63L11.5,18.11,15.37,6.36H13.25a.45.45,0,0,1-.45-.45.46.46,0,0,1,.45-.46H15L11.5,1.16ZM12.46.91,15.82,5,17.17.91ZM18,1.35l-1.35,4.1h4.93Zm-1.65,5-3.62,11,8.9-11Zm-4.82,0a.45.45,0,0,1-.45-.45.45.45,0,1,1,.9,0A.45.45,0,0,1,11.5,6.36Z"/></g></g></svg>